<svg width="333" height="45" viewBox="0 0 333 45" fill="none" xmlns="http://www.w3.org/2000/svg">
<path d="M0.92 0.199997H10.072L24.024 37.448H28.44L42.392 0.199997H51.544L34.584 45H17.88L0.92 0.199997ZM63.675 0.199997H102.651V7.368H71.675V18.12H100.731V25.288H71.675V37.768H102.715V45H63.675V0.199997ZM120.913 37.64H146.961C149.734 37.64 151.932 37.1067 153.553 36.04C155.174 34.9733 155.985 33.544 155.985 31.752C155.985 29.96 155.174 28.552 153.553 27.528C151.932 26.504 149.734 25.992 146.961 25.992H133.841C128.806 25.992 124.817 24.84 121.873 22.536C118.929 20.1893 117.457 17.032 117.457 13.064C117.457 9.096 118.929 5.96 121.873 3.656C124.817 1.352 128.806 0.199997 133.841 0.199997H160.529V7.56H134.481C131.708 7.56 129.51 8.072 127.889 9.096C126.268 10.0773 125.457 11.4427 125.457 13.192C125.457 14.8987 126.268 16.264 127.889 17.288C129.51 18.2693 131.708 18.76 134.481 18.76H147.601C150.929 18.76 153.83 19.2933 156.305 20.36C158.78 21.4267 160.678 22.9413 162.001 24.904C163.324 26.824 163.985 29.1067 163.985 31.752C163.985 35.8053 162.513 39.0267 159.569 41.416C156.625 43.8053 152.636 45 147.601 45H120.913V37.64ZM181.875 37.64H207.924C210.697 37.64 212.894 37.1067 214.515 36.04C216.137 34.9733 216.947 33.544 216.947 31.752C216.947 29.96 216.137 28.552 214.515 27.528C212.894 26.504 210.697 25.992 207.924 25.992H194.803C189.769 25.992 185.779 24.84 182.835 22.536C179.891 20.1893 178.419 17.032 178.419 13.064C178.419 9.096 179.891 5.96 182.835 3.656C185.779 1.352 189.769 0.199997 194.803 0.199997H221.492V7.56H195.443C192.67 7.56 190.473 8.072 188.851 9.096C187.23 10.0773 186.419 11.4427 186.419 13.192C186.419 14.8987 187.23 16.264 188.851 17.288C190.473 18.2693 192.67 18.76 195.443 18.76H208.563C211.891 18.76 214.793 19.2933 217.267 20.36C219.742 21.4267 221.641 22.9413 222.964 24.904C224.286 26.824 224.947 29.1067 224.947 31.752C224.947 35.8053 223.475 39.0267 220.531 41.416C217.587 43.8053 213.598 45 208.563 45H181.875V37.64ZM241.125 0.199997H280.101V7.368H249.125V18.12H278.181V25.288H249.125V37.768H280.165V45H241.125V0.199997ZM297.275 0.199997H305.275V37.448H332.411V45H297.275V0.199997Z" fill="#312F36"/>
</svg>
