<svg width="93" height="101" viewBox="0 0 93 101" fill="none" xmlns="http://www.w3.org/2000/svg">
<path d="M48 6V72.7905C48 83.813 48 89.3243 50.3759 89.8296C52.7518 90.3349 54.9947 85.3008 59.4806 75.2324L89.2388 8.44186C90.9345 4.63584 91.7824 2.73283 90.8953 1.36642C90.0082 0 87.9248 0 83.7581 0H54C51.1716 0 49.7574 0 48.8787 0.878677C48 1.75736 48 3.17157 48 6Z" fill="#0F682D"/>
<path d="M48 6V72.7905C48 83.813 48 89.3243 50.3759 89.8296C52.7518 90.3349 54.9947 85.3008 59.4806 75.2324L89.2388 8.44186C90.9345 4.63584 91.7824 2.73283 90.8953 1.36642C90.0082 0 87.9248 0 83.7581 0H54C51.1716 0 49.7574 0 48.8787 0.878677C48 1.75736 48 3.17157 48 6Z" fill="url(#paint0_linear_157_103)" style="mix-blend-mode:luminosity"/>
<path d="M43 6V56.9015C43 66.4974 43 71.2954 40.7248 71.8619C38.4496 72.4283 36.1999 68.1905 31.7005 59.7148L4.67868 8.81333C2.58876 4.8765 1.54379 2.90807 2.41812 1.45404C3.29245 0 5.52104 0 9.97822 0H37C39.8284 0 41.2426 0 42.1213 0.878677C43 1.75735 43 3.17157 43 6Z" fill="#0F682D"/>
<path d="M43 6V56.9015C43 66.4974 43 71.2954 40.7248 71.8619C38.4496 72.4283 36.1999 68.1905 31.7005 59.7148L4.67868 8.81333C2.58876 4.8765 1.54379 2.90807 2.41812 1.45404C3.29245 0 5.52104 0 9.97822 0H37C39.8284 0 41.2426 0 42.1213 0.878677C43 1.75735 43 3.17157 43 6Z" fill="url(#paint1_linear_157_103)" style="mix-blend-mode:luminosity"/>
<defs>
<linearGradient id="paint0_linear_157_103" x1="70.5" y1="101" x2="70.5" y2="0" gradientUnits="userSpaceOnUse">
<stop stop-opacity="0.44"/>
<stop offset="1" stop-color="white" stop-opacity="0.17"/>
</linearGradient>
<linearGradient id="paint1_linear_157_103" x1="21.5" y1="81" x2="21.5" y2="0" gradientUnits="userSpaceOnUse">
<stop stop-opacity="0.51"/>
<stop offset="1" stop-color="white" stop-opacity="0.1"/>
</linearGradient>
</defs>
</svg>
